/* XPM */
static char *_fbcb23657c14cb2b71078f68075746eAoKWEhGWfgqzsg1t[] = {
/* columns rows colors chars-per-pixel */
"40 40 150 2 ",
"   c #5B1E16",
".  c #5C2016",
"X  c #5D241A",
"o  c #5F2A1C",
"O  c #64241A",
"+  c #6B261B",
"@  c #642B1D",
"#  c #6D291D",
"$  c #70251A",
"%  c #732C1E",
"&  c #792D1F",
"*  c #6C2F20",
"=  c #742E20",
"-  c #7A2E21",
";  c #6E3021",
":  c #743222",
">  c #7D3223",
",  c #833525",
"<  c #893727",
"1  c #853826",
"2  c #893927",
"3  c #8A3728",
"4  c #863928",
"5  c #8C3B29",
"6  c #933F2C",
"7  c #943E2C",
"8  c #953E2C",
"9  c #953F2D",
"0  c #973E2C",
"q  c #963F2C",
"w  c #973F2C",
"e  c #963E2D",
"r  c #933E2B",
"t  c #8E402E",
"y  c #90402A",
"u  c #92412B",
"i  c #95422B",
"p  c #97402C",
"a  c #96402D",
"s  c #97402D",
"d  c #97412D",
"f  c #95432C",
"g  c #96432C",
"h  c #97412E",
"j  c #97422E",
"k  c #95412D",
"l  c #98402C",
"z  c #98402D",
"x  c #98412D",
"c  c #99412D",
"v  c #98412E",
"b  c #99412E",
"n  c #9A412E",
"m  c #99422E",
"M  c #99422F",
"N  c #99432F",
"B  c #9A422E",
"V  c #9B422E",
"C  c #9A422F",
"Z  c #9A432F",
"A  c #9B432F",
"S  c #9C422E",
"D  c #9C422F",
"F  c #9C432F",
"G  c #9D432F",
"H  c #9D442F",
"J  c #9E442F",
"K  c #9A422E",
"L  c #974230",
"P  c #974531",
"I  c #964330",
"U  c #9A4330",
"Y  c #994532",
"T  c #9C4430",
"R  c #9D4430",
"E  c #9D4530",
"W  c #9C4531",
"Q  c #9E4430",
"!  c #9E4530",
"~  c #9F4530",
"^  c #9E4531",
"/  c #9F4531",
"(  c #9D4632",
")  c #9D4633",
"_  c #9E4632",
"`  c #9E4732",
"'  c #9E4733",
"]  c #9D4531",
"[  c #9D4834",
"{  c #9E4834",
"}  c #9F4934",
"|  c #9F4834",
" . c #A04631",
".. c #A04731",
"X. c #A14732",
"o. c #A24732",
"O. c #A14732",
"+. c #A14832",
"@. c #A14833",
"#. c #A24832",
"$. c #A34933",
"%. c #A44933",
"&. c #A64933",
"*. c #A04834",
"=. c #A04935",
"-. c #A34934",
";. c #A04A35",
":. c #A34A34",
">. c #A14A36",
",. c #A14B36",
"<. c #A24B36",
"1. c #A34B36",
"2. c #A44934",
"3. c #A44A34",
"4. c #A54A34",
"5. c #A54A35",
"6. c #A64A34",
"7. c #A64B34",
"8. c #A64B35",
"9. c #A74B35",
"0. c #A14C36",
"q. c #A74C35",
"w. c #A44D37",
"e. c #A74C36",
"r. c #A54A34",
"t. c #A84C35",
"y. c #A84C36",
"u. c #A84D36",
"i. c #A94D36",
"p. c #A94E36",
"a. c #AA4E37",
"s. c #AB4F37",
"d. c #A94D36",
"f. c #A44D38",
"g. c #AA4E38",
"h. c #AB4F38",
"j. c #AC4F38",
"k. c #AB5039",
"l. c #AC5039",
"z. c #AF523B",
"x. c #AF543C",
"c. c #AF543D",
"v. c #AD5139",
"b. c #B0533B",
"n. c #B0543D",
"m. c #B2553C",
"M. c #B3583F",
"N. c #B3583F",
"B. c #B65940",
"V. c #BB5C42",
/* pixels */
"- = = % 5 5 r T <.M.m.x.x.x.U T T T T B 5 5 1 > B B p p <.l.l.h.2.2.p B r T T 3 ",
"# @ o @ 5 3 B q.2.B p  . .2.B 8 T i.q. .> : @ # B W 8 8 G B 8 8 8 8 B B 8 B T B ",
"@ o @ @ B 2.T T 5 p #.8 B  .3 8 q B T 6 > : : : k.h.q r 5 p B r q q 5 r 8 B r , ",
"O X O # > > > , = , 4 # + % # - % = > > % % = > 5 < 3 , 1 > - O O O O + > % % % ",
", , < G G G G J <.q.#.@ @ : @ % 5 i p p g g 5 T T T 2.G <.B q X o @ @ % 5 1 , y ",
"> > - > > , 5 1 , , 5 > > , > , 5 5 5 3 5 5 > > > > , 4 4 , , - > , 4 4 5 5 5 5 ",
"B q T %.p 8 B J 2.T i.T i.h.h.2.i.h.i.i.2.i.T p q  .#.2.i.T i. .#.i.h.2.h.i. .B ",
"q 5 % % % % % 5 T [ <.<.<.<.5 [ q.f.f.L 0.P , , > % % W <.[ [ <.0.0.5 T q q q < ",
"%.r 1 1 1 , = r q B p B 2.i.q i.i.i.i.B b.T y 5 1 , > p 2.2.#.i.i.#.5 8 8 q p 5 ",
"B < 1 : > > , p T 8 8 T q. .5 2.#.#.q.N h.T 5 < : % , T i.q. .2.G B , 8 r r 8 , ",
", - % O . + # % % # # = > > % = > > , > 6 3 % % O % O > = % - > > > O # # # # O ",
"2.#.#.< b.o. .i.> , 3 1 > N.b.d.i.m.<.2.q.T i.5 b.l.m.h.5 6 3 5 5 V.V.j.%. .r r ",
"i.2.i.1 q.8 q  .> : ; > = - - % & - - &  . .i.1 2.2.T B , # : > = - % % + & - $ ",
", 3 6 > p 8 B i.: * ; : = 5 4 > : > > : 5 5 u - G i.i.i.* * : ; # 5 > > = : ; = ",
"O - 1 , 4 > > 3 > > > > # O O O   O O O + > , , 5 5 5 5 > > > > + O . O O O O O ",
"T q.B.N.m.l.2.l.2.i.i.i.p 5 W T p <.B 3 p U i.2.%. .T 2.G 2.2.B 5 5 p  .2.T B T ",
"O @ O , r r < p 5 5 p p 5 i.i.2.i. .6 O # O O - 1 1 1 1 3 3 < < 5 i.i.i.i.T r O ",
"@ : : > 3 3 > 3 5 5 r p 1 B J B 2.T u @ @ # @ = > = : , 5 5 r 5 5 T J  .2.#.1 * ",
"q 8 q < 5 < < , N r p p y 5 < y < r 6 1 1 1 5 r 1 1 q r J N p i y , , 5 , 5 < 5 ",
"- > - = - > 1 > , > 1 1 < 1 > , , 3 < > > > < < < < < 1 < < < 1 > % % > # = > 1 ",
"1 , 1 3 . X X X 3 B 2.2.#.2.< T 2.p p p , , 5 3 . O @ @ q %.2.T r r 3 T r , 1 1 ",
" . .p p @ o * : r B #.2. .T % > - B i.2.B B  .T # : : : p i.T 8 8 8 # % + 5 q B ",
"B 8  .q @ ; * @ 6 T T #.T p r T N T 2.B  .i.i.U @ ; * : p 2.T r 5 , > r p B i.2.",
", , - # # + # # % % # % > , % - > , 1 3 1 1 , - % % % % & > # O % % # # % > , 1 ",
"B G - r r 5 5 W T p B < %.2.i.W 2.%. . .l.l.3 #.#.T T T T #. .1 2. .B r G B B T ",
"5 3 - > > , - > > - - % & , , , & , > = 3 1 > > 4 , 3 4 3 - > - 1 , % - % % - - ",
"h.i.#. .2.2.B #.B 6 u T r #.<.2.B p #.p l.q.B %.2.%.#.2.i.p 5 3 5 5 B 2.B q 5 > ",
"r 1 % # + # O O O O # % # % % u L 5 6 6 p 5 # # % % = # % % % % # O O < 5 3 , > ",
"p r 3 5 1 3 1 > 5 < y 5 i N 5 b.l.i.i.i.i.W 4 4 p N N 5 N y y g 5 1 > G B p 8 B ",
"B r T i.B  .T 1 5 i p y p N 1 i.i.i.%.i.i.U T q.i.i.q.5 p N N y 1 1 % 8 B 8 8 8 ",
"< < B < 6 r p % > > % > % > O B B B B B p 3 B B B N B % > > > % + % O < q < < < ",
"= = 1 m.M.m.U B T B B T r q 6 q 5 q 1 1 > > 3 B.m.x.6 p T T B < 1 < , , > , = = ",
"#.2.2.m.i.i.r i.i.i.#.2.B r W q.l.5 6 %.2.B #.N.i.2.3 T 2.i.2.T 1 > 3 q B , 1 8 ",
"#. .2.q.2.[ q.<.#.T T T 5 l.i.i.q.2.T 2.i.2.T #. .6 q r p 5 r r > B 8 8 8 B < 8 ",
"5 1 1 , > 3 > - & & > > - 5 5 5 < 1 , 5 < , , - - , - % & % # % # - - - - - % , ",
"T 5 g g g p g g p < > : : : > : > > : r r , 5 1 , , , , 1 > ; ; * @ @ @ @ @ * r ",
"p 5 W 5 < 1 < < < > = : > P u p 5 3 1 5 3 3 3 - % % % % % = = > > t t 5 5 u P W ",
"i.T T , : : : : : : : : = B B  .B 8 8 8 8 8 B , @ @ : @ o : * @ # J %.i. .#.#.%.",
"B q 3 p q q p 1 > & r y 3 , 1 < , > 1 1 1 1 5 r 3 6 p , % % < , , 1 < 5 , 3 3 1 ",
", - % - = - , > & < 1 1 , , , , > , 1 1 1 , , , , , , > & < 1 , , > > % % - 1 = "
};
