/* XPM */
static char *_2256acb6b004751d76918d8a55260bfaIh0d0fF0y4W0MOq[] = {
/* columns rows colors chars-per-pixel */
"40 40 182 2 ",
"   c #3C3A37",
".  c #3E3D38",
"X  c #433E39",
"o  c #45423B",
"O  c #4B433C",
"+  c #4F493F",
"@  c #4B4237",
"#  c #54453C",
"$  c #5A463D",
"%  c #554A3C",
"&  c #5B4B3C",
"*  c #514637",
"=  c #634C3D",
"-  c #6C4E3F",
";  c #64513B",
":  c #6A533D",
">  c #6F593F",
",  c #73563E",
"<  c #745A3D",
"1  c #795E3E",
"2  c #7B603E",
"3  c #4C4944",
"4  c #4B4641",
"5  c #504740",
"6  c #544C43",
"7  c #5D4D42",
"8  c #534E49",
"9  c #575046",
"0  c #5B5346",
"q  c #55514C",
"w  c #59534C",
"e  c #5F5849",
"r  c #5A5650",
"t  c #5E5952",
"y  c #654D41",
"u  c #6B4F43",
"i  c #635644",
"p  c #6C5245",
"a  c #63554A",
"s  c #6C554A",
"d  c #655A4B",
"f  c #695E4D",
"g  c #745445",
"h  c #7B5545",
"j  c #745D43",
"k  c #7A5B42",
"l  c #745648",
"z  c #75584B",
"x  c #7C5B4B",
"c  c #635B53",
"v  c #6A5D53",
"b  c #645F59",
"n  c #6D614F",
"m  c #766045",
"M  c #7C6241",
"N  c #73624C",
"B  c #7D664A",
"V  c #7E684D",
"C  c #6B6254",
"Z  c #67625B",
"A  c #6C635B",
"S  c #726552",
"D  c #756954",
"F  c #7B6C55",
"G  c #71675D",
"H  c #756A5E",
"J  c #7F6F58",
"K  c #7F7059",
"L  c #6D6760",
"P  c #6F6962",
"I  c #746C64",
"U  c #796E64",
"Y  c #777068",
"T  c #7C746C",
"R  c #7F7870",
"E  c #82633E",
"W  c #825746",
"Q  c #825A44",
"!  c #825D4C",
"~  c #895B49",
"^  c #846541",
"/  c #896341",
"(  c #876842",
")  c #8C6C44",
"_  c #85604E",
"`  c #8B614E",
"'  c #8E6F49",
"]  c #80694D",
"[  c #9A624D",
"{  c #936E43",
"}  c #967145",
"|  c #9B7446",
" . c #957248",
".. c #997649",
"X. c #876250",
"o. c #8B6553",
"O. c #816D56",
"+. c #8F6855",
"@. c #916A56",
"#. c #956D59",
"$. c #986F5A",
"%. c #9B6650",
"&. c #83745A",
"*. c #8A7A5E",
"=. c #88785D",
"-. c #9C725D",
";. c #A0654E",
":. c #A57B4A",
">. c #AA7F4C",
",. c #A56A52",
"<. c #AB6C53",
"1. c #B26E56",
"2. c #AD7156",
"3. c #B57157",
"4. c #B67258",
"5. c #BC765A",
"6. c #BF785C",
"7. c #8E7C61",
"8. c #81796F",
"9. c #81776D",
"0. c #907F61",
"q. c #847C73",
"w. c #887F76",
"e. c #C47B5E",
"r. c #C97E5F",
"t. c #C0775C",
"y. c #CA7E61",
"u. c #AD814D",
"i. c #B1854F",
"p. c #B48650",
"a. c #B68952",
"s. c #BB8D54",
"d. c #958464",
"f. c #998666",
"g. c #9A8967",
"h. c #9B8768",
"j. c #9D8B69",
"k. c #898077",
"l. c #8C837A",
"z. c #90877E",
"x. c #91887E",
"c. c #A28E6B",
"v. c #A5926D",
"b. c #AA956F",
"n. c #A9986E",
"m. c #AC9671",
"M. c #AD9A71",
"N. c #B59E75",
"B. c #B5A175",
"V. c #B9A377",
"C. c #BBA478",
"Z. c #BEA97B",
"A. c #C08F55",
"S. c #C29256",
"D. c #C79658",
"F. c #C99759",
"G. c #CB995A",
"H. c #CD8161",
"J. c #D38565",
"K. c #D78866",
"L. c #D98A67",
"P. c #DD8C69",
"I. c #E18F6A",
"U. c #C3AD7D",
"Y. c #C6B07F",
"T. c #C8B17F",
"R. c #958B82",
"E. c #998F85",
"W. c #9A9086",
"Q. c #9D9389",
"!. c #A1978D",
"~. c #A2988E",
"^. c #A49B91",
"/. c #A79D93",
"(. c #A69C92",
"). c #C7B280",
"_. c #CBB581",
"`. c #CEB883",
"'. c #D2BC85",
"]. c #D6C087",
"[. c #D6C188",
"{. c #D9C389",
/* pixels */
").Z.B.N.N.N.N.N.N.N.N.v.7 @.-.-.-.-.-.-.-.@.O = = = : p p p : * 6 i i i 6 V.[.'.",
"N.N.N.N.N.N.N.N.N.N.N.h.7 @.-.-.-.#.+.o.o._ : u.s.s.s.s.a.a.a.s.s.S.S.s.M d.B.N.",
"F F D S F F F F F O.O.d # ! -.-.o.X.X.X.X._ : S.G.G.G.G.G.G.F.G.G.G.G.G.) O n F ",
"$.@.# ~ H.y.e.t.6.t.e.<.$ o.-.o.X.X.X.X.X.! = S.G.F.S.a.i.u.>.>.u.u.i.p.) y @.#.",
"-.-.y ,.I.I.I.I.I.I.I.t.= o.@.X.X.X.X.X._ x = s.s.u.>.>.>.>.>.>.>.>.>.:.E x -.-.",
"-.#.y <.I.P.K.J.J.H.H.5.= x _ ! ! ! x x l y * | | } } } | :.:.:.:.:.:.| : x -.-.",
"+._ p ,.J.H.e.e.e.e.e.5.# $ g g h h h h =   4 a v v C C d % i m B B m i o x -.-.",
"X.X.p W 5.6.t.t.6.5.4.;.$ ,.J.L.L.L.L.L.e.5 w.!.^.^.^.^.R.v j.)._._.).U.*.x -.o.",
"X.X.p O z x x x g u y $ # H.I.I.I.I.I.I.P.s Q./././././.Q.G Z.{._.U.U.U.f.l +.X.",
"X.X.u Z z.R.R.z.k.q.T Z 6 J.I.P.K.J.H.y.y.z E././.^.!.W.R.C V.Y.N.N.N.N.*.p X.X.",
"! x # T /././././././.Q.d H.J.y.e.e.e.e.e.l E./.Q.W.E.E.R.c d.m.m.m.m.b.D y ! ! ",
": & X T /././.^.^.^.^.!.S e.y.e.e.e.e.e.5.l W.~.E.E.E.E.R.q 0 N N B V ] j : k j ",
"s.:.; T ^.~.Q.W.E.E.W.E.C 3.e.e.e.e.e.e.4.s W.Q.E.E.E.E.R.d ) >.a.s.S.S.D.D.D.S.",
"G.S.1 I W.E.E.E.E.E.R.k.6 [ 5.5.4.5.5.5.,.5 k.R.R.R.R.x.q.V S.G.F.a.F.G.G.G.G.G.",
"S.S.^ q T T 9.T T I I t o y W h W ~ ~ W y O a C G H I G c j S.G.G.D.S.s.s.s.S.S.",
"u.u.^ o C =.d.g.j.j.j.j.g.d.&.+ y x ! X.X.o.o.o.X._ x x $ > S.G.G.s.u.>.>.>.>.u.",
">.>.M F _.{.{.{.{.{.{.{.{.{.U.f +.-.#.@.o.X._ o.+.@.#.#.l : S.S.i.>.>.>.>.>.>.>.",
":.| ; d.{.{.{.{.{.'.'.`.).U.b.i @.X._ _ _ ! _ _ _ _ _ _ p * { | | | :.:.:.:.:.:.",
": = X j.{.{.].Y.C.N.N.N.N.N.d.7 g h x ! ! ! ! ! _ _ _ x y   . * & = ; < Q Q k , ",
"P.H.%.j.{.'.B.N.N.N.N.N.N.m.&.3 w v v v a # # a s s y $ a I I I I t u 5.L.P.P.P.",
"H.H.3.d.'.C.N.N.N.N.N.N.N.d.D t W./././.^.T b ~./.~.R.q x././././.l.! J.I.J.H.y.",
"e.e.<.S j.b.N.N.N.N.N.N.m.g.d c /.^.!.!.~.q.I /././.Q.t W./.Q.Q.Q.z.X.J.e.e.e.e.",
"<.[ h . 0 a d d e i j B B m % A ^.W.E.E.E.T T /./.^.R.q q.R.x.z.x.q.p <.<.5.4.4.",
"j.n.M.N.B.B.N.v.0 2 a.D.F.F.' A w.l.l.l.l.L q./.!.W.R.8 0 C C C C d f D O.6 s *.",
"{.{.{.{.'.'.`.).&.( D.G.G.G.)   6 d f d 0 o k./.E.E.R.c V.[.{.{.{.{.{.{.[.d M.{.",
"'._.U.Z.C.C.V.N.&.^ F.G.D.S.^ o c.U.Y.Y.Z.=.k.^.E.E.R.A ).{.{.[.'.`.`.`._.D B.{.",
"B.N.N.N.N.N.N.N.F M S.a.u.>.1 6 `.{.{.{.{.v.k.^.E.E.R.H _.].Y.V.N.N.N.N.N.K M.Y.",
"f.h.j.h.f.f.d.*.d M A.u.>.>.< f '.{._.Z.C.c.T !.R.R.l.A B.V.m.m.b.v.j.f.7.d S d.",
"3 I 8.q.q.q.8.I q ^ a.>.>.>.k D [.U.N.N.N.c.w I I I I 8 d d 0 6 5 p x ! ~ ~ ` ! ",
"r !././././././.T ^ u.>.>.:.M S Z.N.N.N.M.d.@ ^  ....... .) ^ % u H.P.P.P.P.P.4.",
"A ^.!.Q.Q.Q.Q.Q.I & M ^ ^ M & 6 S F O.O.F f & S.G.G.G.G.G.G.S.M ~ P.L.H.r.y.y.4.",
"b R.R.R.R.R.R.l.r q T q.w.q.q.R r ~ 2.2.,.~ , G.G.F.s.a.s.S.S.^ ! t.6.5.t.5.5.<.",
"5 c A A A A C c X P /./././././.T 5.P.I.I.K./ G.S.p.>.>.>.>.u.k O u p p y y u = ",
"#.@.@.+.o.o.X.x 7 Y /./.!.Q.Q.Q.U H.I.I.P.K./ s.u.>.>.>.>.>.>.j &.N.V.B.e y +.@.",
"#.+.o.o.+.+.@.@.! T ^.Q.E.E.E.E.A H.P.H.y.t.Q | :.:.:.:.>.:.:.j b.{.{.[.F x -.-.",
"_ _ _ _ _ _ _ _ x U ~.W.E.E.E.E.c r.H.e.e.5.- : < 1 E ^ ( ( ^ ; B.{.{.).F x #.o.",
"x x ! ! ! ! ! x g c k.x.R.R.R.l.8 5.y.e.e.e.- x X.X.X._ x x s 7 B.{.U.N.S y x x ",
"&.=.*.*.=.&.F F S d 9 3 3 8 8 8 . W ,.1.4.4.p -.-.-.-.-.-.-.-.x M.'.B.m.n O d D ",
"{.{.{.{.{.{.{.{.'.'._.0.o 7 p s s p p p y O $ -.-.-.#.o.` o.o.z v.'.N.N.J c.[.{.",
"{.{.{.{.{.{.].'.'.'.`.b.% +.-.-.-.-.-.-.-.x y @.+._ _ _ _ _ ! p =.Z.N.N.7.V.{.{."
};
