/* XPM */
static char *_f3f75b6697b4ccfe9abe28b645d0cf6lujsFAcfdcCsrlbO[] = {
/* columns rows colors chars-per-pixel */
"40 40 163 2 ",
"   c #0C1D0B",
".  c #0E250A",
"X  c #11260B",
"o  c #112909",
"O  c #15310E",
"+  c #162612",
"@  c #182714",
"#  c #172D10",
"$  c #1A2D14",
"%  c #1B2619",
"&  c #1E2C1B",
"*  c #173511",
"=  c #1B3214",
"-  c #1B3C14",
";  c #1F331A",
":  c #1D3C18",
">  c #23351C",
",  c #223A1C",
"<  c #242D20",
"1  c #253221",
"2  c #2B3527",
"3  c #273C22",
"4  c #2A3B24",
"5  c #2D362A",
"6  c #2D3A29",
"7  c #343E2D",
"8  c #333F32",
"9  c #393F31",
"0  c #1E4217",
"q  c #23441B",
"w  c #25491C",
"e  c #274221",
"r  c #2C4325",
"t  c #2B4A22",
"y  c #2E4129",
"u  c #314227",
"i  c #33432D",
"p  c #39452F",
"a  c #324A2C",
"s  c #35502D",
"d  c #38512D",
"f  c #364332",
"g  c #3A4334",
"h  c #374B32",
"j  c #3A4B33",
"k  c #3C4739",
"l  c #3E4C39",
"z  c #3D5436",
"x  c #3E5139",
"c  c #414737",
"v  c #414937",
"b  c #42473A",
"n  c #444B3B",
"m  c #494D3E",
"M  c #425037",
"N  c #43533C",
"B  c #49523E",
"V  c #42583B",
"C  c #4C583F",
"Z  c #444D42",
"A  c #4B4E42",
"S  c #465341",
"D  c #4C5544",
"F  c #465A40",
"G  c #4D5A46",
"H  c #4C5648",
"J  c #4D5A4A",
"K  c #545547",
"L  c #505C46",
"P  c #52564B",
"I  c #535C4C",
"U  c #5A5C4D",
"Y  c #565E50",
"T  c #5A5F52",
"R  c #54614C",
"E  c #59624F",
"W  c #566152",
"Q  c #5B6354",
"!  c #5D6A55",
"~  c #5D6659",
"^  c #5E6A59",
"/  c #5D7153",
"(  c #616455",
")  c #656B57",
"_  c #64665A",
"`  c #636B5C",
"'  c #696B5E",
"]  c #65715D",
"[  c #6D705D",
"{  c #656D62",
"}  c #6B6E61",
"|  c #6B7265",
" . c #6E7966",
".. c #6E7469",
"X. c #707465",
"o. c #707A66",
"O. c #71776D",
"+. c #737B6B",
"@. c #787E6D",
"#. c #767D71",
"$. c #797F74",
"%. c #797E73",
"&. c #77806D",
"*. c #79816E",
"=. c #78816E",
"-. c #778072",
";. c #7E8473",
":. c #798174",
">. c #7A8174",
",. c #7B8276",
"<. c #7C8277",
"1. c #7E8574",
"2. c #7D8374",
"3. c #7E8876",
"4. c #7F8479",
"5. c #7E8478",
"6. c #808675",
"7. c #818776",
"8. c #828977",
"9. c #818579",
"0. c #82867B",
"q. c #818878",
"w. c #848B79",
"e. c #83887C",
"r. c #878D7F",
"t. c #848B7A",
"y. c #898F80",
"u. c #898D81",
"i. c #8B9083",
"p. c #8D9385",
"a. c #8F9186",
"s. c #8D9284",
"d. c #919587",
"f. c #929489",
"g. c #939789",
"h. c #93958A",
"j. c #95978D",
"k. c #929489",
"l. c #95998B",
"z. c #94988B",
"x. c #979A8D",
"c. c #95998B",
"v. c #98998F",
"b. c #989A8F",
"n. c #9B9E91",
"m. c #9B9F94",
"M. c #9D9F95",
"N. c #9C9F92",
"B. c #9BA091",
"V. c #9EA096",
"C. c #9CA091",
"Z. c #A1A399",
"A. c #A4A699",
"S. c #A5A79A",
"D. c #A5A79A",
"F. c #A6A89B",
"G. c #A9AB9E",
"H. c #ACAEA1",
"J. c #B3B5A9",
"K. c #B7B9AD",
"L. c #B8BBAF",
"P. c #BCBEB3",
"I. c #BEC0B5",
/* pixels */
"E G D h R C L h i n D D G G L n n.S.S.S.S.l.| W o o o o o > K K K K K K K K K m ",
"Q I Q p./ t Q X.X.Q C C D D I U W B.S.S.x.G D i h 4 = O o v K K K K K K K K D 6 ",
"y.g.l.l.! q W ' ' ' ' { ' _ i o = V H H g J { | ....{ I y v K K K K K K K b % y ",
"l.l.p.4.O.3 ( ' ' ' ' ' ' m o o o - z { H { O.O.O.O.O.O.{ 6 K K K K K A < 1 v q.",
"i.$.O.O.O.i ' ' ' ' ' ' A X o o o * a e W O.O.O.O.O.O.O..., B K K K 7 < c K I l.",
"O.O.O.O.O.i ( ' ' _ Q A + o o o o = | G #.>.>.>.<.| W ~ W : q i 1 & n K K B 1.e.",
"O.O.O.O.| 4 g 7 6 2 6 X o O O , a x { O.V.v.v.v.v.M.r.) J : * - o . g K K D g.#.",
"{ | I i = x ) o.*.@.N N J H i ` O.~ y m.g.g.g.g.g.g.g.9.; . . o o o # n g l Q Q ",
"# # o o o | w.6.X.D H { ....` 6 ` ` N Z.f.f.f.f.g.g.p.i . . o o o o : J W { { N ",
"o o o o o o.;.{ I i | O.O.O.O.~ 1 Z -.j.f.f.f.f.g.g.I X . o o o o z ^ | ..Q 3 o ",
"o o o o o +.} I l H W O.O.O.O.O.{ 4 g.g.f.g.f.f.g.Q . O o o O O z L.L.H.H.x.= o ",
"o o o o O  .( j ` ` L Q O.O.O.O.O.R x.g.g.g.f.f.%.I t.q.q.q.9., x.K.F.S.S.C.t O ",
"o o o * - M i n W ' ' Q Q O.O...F G g.g.g.g.g.9.8 s.l.l.y.%...Q J.F.S.S.S.w.q O ",
"j M N C q q +.O.) N D ' _ i 3 , * V g.g.g.g.u.5 W e.<.#.O.O.^  .F.S.S.S.S.i.e , ",
"[ [ [ [ d a _ ' { X.Q m n 5 o o O : O.g.g.p.Z > g v S D J Q j R S.S.S.y.~ f N ) ",
"[ [ [ [ C y ' ' ' ' ' ' _ 6 u , w - t j l g ; m K K D A m m 7 i 1...D y _ G [ [ ",
"[ ' ) U K & ' ' ' ' ' ' D D [ I e h ( I [ ' ` G n K K K K K 1 j J ~ ` S { I [ [ ",
"( U K K K X Q ' ' ' ` A D [ ' ' ) ) [ [ [ [ -.y.G c K K K 7 f { ..O.O.G N ) [ ' ",
"K K K K K + m _ I n 6 p ( U I I U U U U U n l Q ..f 5 1 @ o W O.O.O.O.| i ' ( I ",
"K K b 5 % . X X o o o o m K K K K K K k @ . o o M i.) x = o Q O.O.O.O.R j U K K ",
"m g f ` ] y i o o o o o = K K K K K < n | O e 3.G.S.S.F.H. .Y O.O.O...s a m v v ",
"_ | l.l.l.) j y o o o o o 4 K K K 2 S | M R 1.S.S.S.S.S.S.O.D O...^ z 0 - a { O.",
"p.l.l.l.p.e.3 ] = o o o o o 7 K 7 6 ^ | p.l.r.r.S.S.S.S.e.I D f I s a a w G | O.",
"l.l.s.>.O.O.N M L o o o o o o > = o.g.l.l.l.l.+.i.S.S.4.Y Z J @.d.| ..{ = ` p.l.",
"y.>.O.O.O.O.V q I i o o o o O , -.l.l.l.l.g.y.p.] N.%.l ! q.l.p.>.O.O.O.j g.l.l.",
"O.O.O.O.O.O.` q i g X ; r j j ! l.l.p.9.#.O.O.O.O.i G g.i.0.%.O.O.O.O...k  .p.5.",
"` W I I G S N x I | >.4.e.y.O.! l.p.O.O.O.O...{ S p p ..O.O.O.O.O.O...Z l Q D J ",
"W N  .#.9.e.y.p.p.f.g.g.g.g.O.! g.#.O.O.| { H g b n g l O.O.O.O.O.| Z ! &.E { O.",
"N %.f.f.g.g.g.g.g.g.g.g.g.g...W %...{ I i i c n n m D 4 W O.O.O.{ f ] t.t.+.~ O.",
"| u.f.f.g.g.g.g.f.f.g.g.g.u.Z l ` Q R R p n m D K K K c = ` O.` g  .t.t.t.8.D I ",
"9.g.f.f.f.g.g.g.f.f.g.e.D g 4 y { ' ' T g n K K K K K K & > Z i +.t.t.t.t.t.N S ",
"9.g.f.f.f.g.g.g.g.e.I 7  .t.y # ' ' ' m v D K K K K K K 9 . y 1.t.t.t.t.t.t. .D ",
"9.g.g.g.g.g.g.<.I D o.t.t.q.; o D ' ' p m K K K K K K K g i 1.t.t.t.t.t.t.t.t.f ",
"@.g.g.g.g.0.N I *.t.t.t.6.' + o y ' E q n K K K K K K 1 h 6.t.t.t.t.t.q.6.1.>.f ",
"S f.g.9.R J &.t.t.t.q.@.{ U X o = Q M 0 j K K K K 9 + i 1.6.-.+.| } ' ' ' T f H ",
"D J G E 1.8.1.>.@.+.} ' ' A . o * 1 , = g k g 9 $ . o j D U ` ' ' ' ' ( g l ..O.",
"..q R | ' ' ' ` _ Q P Z g 5 j z.x.x.i.q.3.] #             . X > g B D g i ` O.O.",
"| h q C n b g f g g n S D I n P.I.P.J.H.G.F.f   o o o o o o o . o > m K K n J ..",
"{ Q e a i H I I I I I I I I D p.P.H.S.S.S.S.]   o o o o o o o o i K K K K K K i ",
"G Q S Q Q Q Q W W T Y Y Y I I ] G.S.S.S.S.S.+.3 o o o o o o # v K K K K K K K i "
};
