/* XPM */
static char *_0b703cde8ea496badbb340ca20a80bboM2XbcGsaW6A1p6P[] = {
/* columns rows colors chars-per-pixel */
"40 40 139 2 ",
"   c #535353",
".  c #494949",
"X  c #5D5D5D",
"o  c gray64",
"O  c gray65",
"+  c #979797",
"@  c #6F6F6F",
"#  c #484848",
"$  c #7E7E7E",
"%  c #9A9A9A",
"&  c gray61",
"*  c #989898",
"=  c gray59",
"-  c #959595",
";  c gray57",
":  c gray30",
">  c #7B7B7B",
",  c gray71",
"<  c #A5A5A5",
"1  c #888888",
"2  c gray52",
"3  c #929292",
"4  c gray54",
"5  c #6D6D6D",
"6  c gray33",
"7  c gray32",
"8  c #898989",
"9  c gray58",
"0  c #585858",
"q  c #656565",
"w  c gray39",
"e  c #565656",
"r  c gray36",
"t  c gray42",
"y  c #4E4E4E",
"u  c #767676",
"i  c gray55",
"p  c #606060",
"a  c #4B4B4B",
"s  c gray37",
"d  c #909090",
"f  c #8D8D8D",
"g  c gray40",
"h  c gray35",
"j  c #C0C0C0",
"k  c #B4B4B4",
"l  c gray69",
"z  c gray66",
"x  c #A4A4A4",
"c  c #A0A0A0",
"v  c gray60",
"b  c gray51",
"n  c #555555",
"m  c #808080",
"M  c gray31",
"N  c #4C4C4C",
"B  c DimGray",
"V  c gray46",
"C  c gray47",
"Z  c gray28",
"A  c gray50",
"S  c #505050",
"D  c gray27",
"F  c #3C3C3C",
"G  c #646464",
"H  c #ACACAC",
"J  c #9D9D9D",
"K  c #9B9B9B",
"L  c #8E8E8E",
"P  c #838383",
"I  c #5A5A5A",
"U  c gray73",
"Y  c #5F5F5F",
"T  c #727272",
"R  c gray68",
"E  c #939393",
"W  c gray53",
"Q  c gray34",
"!  c #515151",
"~  c gray49",
"^  c gray45",
"/  c gray56",
"(  c #AFAFAF",
")  c #A2A2A2",
"_  c gray75",
"`  c #B6B6B6",
"'  c gray63",
"]  c #6C6C6C",
"[  c #777777",
"{  c #464646",
"}  c #AEAEAE",
"|  c #676767",
" . c #AAAAAA",
".. c gray67",
"X. c gray72",
"o. c #A9A9A9",
"O. c gray44",
"+. c #5B5B5B",
"@. c #747474",
"#. c #626262",
"$. c #434343",
"%. c #818181",
"&. c gray74",
"*. c #686868",
"=. c #717171",
"-. c gray38",
";. c #7C7C7C",
":. c #6A6A6A",
">. c #3F3F3F",
",. c gray62",
"<. c #B7B7B7",
"1. c #A7A7A7",
"2. c gray43",
"3. c #444444",
"4. c gray70",
"5. c #8B8B8B",
"6. c #848484",
"7. c #797979",
"8. c #9F9F9F",
"9. c #868686",
"0. c gray29",
"q. c gray25",
"w. c #414141",
"e. c #C1C1C1",
"r. c gray48",
"t. c #BBBBBB",
"y. c #B2B2B2",
"u. c gray77",
"i. c gray23",
"p. c gray26",
"a. c #BCBCBC",
"s. c gray76",
"d. c #B1B1B1",
"f. c #393939",
"g. c gray22",
"h. c #3A3A3A",
"j. c gray78",
"k. c #B9B9B9",
"l. c #3E3E3E",
/* pixels */
"  . X o O + @ # $ % & * = - ; X : > , < 1 2 3 + 4 5 6 7 8 * 9 ; @ # 0 q w 0 e r ",
"t y : u 3 i p a s 1 i d f 1 g h O j k l z O x c % v b 7 n 8 m : M 9 c w N : n B ",
"3 h N V 9 C Z A @ S 0 s h D F G < H J % % K J o c + L P I 6 F G l U K Y S T o R ",
"E W S G = V I 3 d Q !   Y ~ ^ e / J % % % J % % & 3 L d T a @ O ( ) / Q B _ ` ' ",
"f 3 ] 0 E [ y 7 6 { > } z K + | q d ; 9 E L ; L / d d L I w  ...J ' ; e > X.o.% ",
"/ ; t n W Q a O.b B +.o * 9 / $   w ^ @.5 X e h #.Q 6 7 $.%.o.K + o / e C z K v ",
"b [ r M I D [ _ &.= 7 s Y *.[ =.: N : Q I s p q q -.n N : p ;.i / E / 6 :.- ; i ",
">.# # N # Q ,.<.k ..A q h 6 : # N ^ E z l  .o.1.z z A ! S 2.6 3.a X @ . e t O.r ",
"g J P 0 : *.< 1.J J J L % = 2.: X ( j 4.R  .z o ) o 9 @.] l 5.+.: 5 C q -.e 3.{ ",
"6.<.,.5.X S m & v v ' ; ; 3 7.: w } R J + K & J 8.8.d 6.7 L G a Y ~ X.l o 8.v ;.",
"B * + d %.I I 2 W W W 8 4 i C : I P L 8 W W 1 W 9.9.8 i e t D E =.^ ) K + 9 ; m ",
": Q ^ B 0.$.: 0.Z { { N M 0.3.# S e M $.q.w.Z 7 ! # Z 0.3.6 # =.+.I P 8 4 b > +.",
"Y M . $.s 0 ! t u V O.q C @ e n 3 < % L 2.r , <...8.P -.n : I s G S Z q.>.{ M I ",
"9 =.! :.1.6.e - j ,  .< J P M L e.l J * r.r t.k R c % - r.e ....P 0 ^ I = z 1.f ",
"; i X 8  .5.M ; 4.< & % * A 6 ' ..& % 9 u p 1.8.% + - d %.S y.x [ g & :.+ k  .E ",
"i 4 e P + W S ^ 3 % v v E ~   f J * - L G ! > f f L L %.-.7 J 9 2.g c 2.V 1.& 9 ",
"5.t D X s 7 # 7 a / E - / 8 S 2.5.4 / u n u     n h 7 3.] % + d r +.L @ 0 5.L d ",
"! N m m 1 f 4 b n =.~ A b $ M N 7 T 7.I 6.* w 7 > W C e / L d d # 6 s 0.a M N O.",
"y o.u.<.o.O & - :.# i.F p.w.Z 2 C 3.! X I W 2.r 4. .%.7 s s X I >.y S #.W 7.q y ",
"r , } ,.K K * E #.p c o.x 9 p g :.Y a.' =.y q.I x & C Q ; % 4 C f ; B / s.o.v ;.",
"h x < v 8.,.; E -.g s.k d.v 5.#.{ 1 , & % f 0 s * * @.s U H 1.3 % E X - o.% + ~ ",
"M :.i ; ; L i b : X l H J * * V M 7.K * = ; *.X W %.t 7 f f 8 8 f 8 h 4 * = d T ",
"0 #.: g ] #.h f.0 e R & % K - @ a [ 4 9.6.$ G 0.>.g.h.a a 0.$.. # D q.G @.8 @.p.",
"$ o.t ! . D Z X ; e 8.% % ,.3 5 Q I   M ! : # G :.+.u 6 r.b C +.B r   : !   D 0.",
"~ 4.+ 4 |   t G A y 3 v v J d @ B I W 8.3 6.#.s Q 1 / 6 _ l = X :.1 + 3 / 4 2 ] ",
"C x * 5.s 9.4.8 q # [ ~ 7.A b :.a A j.X.O * - @.n ~ :.X X.O ; n u 4.X.( ' + - m ",
"g 4 ; 1 N % z v ; ^ ! N 0.0.. 0.h A y.' % K z E 5 ! N 8 d.& ; S P H o J & % 3 r.",
"N 0.B T y 6.W b b ;.6 0 %.r.^ ;.=.7.& v * * & v V Q p ) K = E S A K v % % = d G ",
"i G # p.a 6 # 3.Z . N C ) % - i 5 p 4 5.5.4 / E V #.g 2.C -.q 0.] 2.@ i 9 J 1 Z ",
"= s B 1.1 r 4 x + 6.e n e 6   : # 0.! S : . { . D N y Q S | X e 7 0.a O.2 A N 4 ",
"E 2.e 3 [ #.` k c %.p $ 7 -./ - d 8 ~ ] M t T @ :.h =.k _ k.z J 5.C S : $.>.e x ",
"L p a X Q 7.H & + 6.s / S w 9 ) 1.) % 8 y H l & + 5 [ s.( c % % d ;.| ,.$ M M @.",
"| l./ *.0.6.) o 9 6.0.! 3.  $.#.5.i f P $.; * 3 * T ] c J * % - + i I > 0.  2.y ",
"w y B B : > * E / 1 p.r.) ,.m r : : 6 : y *.B d v O.r 4 / 5.L ; - 1 M M Y < ,.8 ",
"W : s 5 h p ^ W 4 u s j ` ..v @.p c z * * t 0 1 8 e S X I +.s w g G a ^ x o.% % ",
"2 . 5.) 5 X 7   0.Z A  .) K 3 5 +. .k H < C 0.e 0.{ r r.n h *.^ V w 0 < 1.K v - ",
"X 0.,.8.@.*.9 ;.g 5 q d v - f !   $ 8.% % m ! 5.s [ w e =.H 4...8.f 0 %.2 %.~ @.",
"{ I % 9 ^ @ + | =.b X r m A =.y O.0 r.= v 2 : > X % #.u ,.' ,.v - 8 S S D p.$.{ ",
"7.h 7.+.a e -.p.! Q +.p y S 0.0.. N S #.W [ w.n 6.9 -.I X p w p I M # 0 C 9.9.> ",
"; X y :.u ^ r N - <...H 1.O % P #.8 I 7 0.l.N w C ^ 0 7 ; v - 3 9.s e K x v = 3 "
};
